<?xml version="1.0" encoding="UTF-8"?>
<svg width="100px" height="100px" viewBox="0 0 100 100" version="1.1" xmlns="http://www.w3.org/2000/svg" xmlns:xlink="http://www.w3.org/1999/xlink">
    <title>CPU Chip Icon</title>
    <g id="chip-icon" stroke="none" stroke-width="1" fill="none" fill-rule="evenodd">
        <rect id="chip-body" fill="#333333" x="20" y="20" width="60" height="60" rx="5"></rect>

        <rect id="inner-square" fill="#555555" x="30" y="30" width="40" height="40" rx="2"></rect>

        <rect id="pin-left-1" fill="#777777" x="10" y="28" width="10" height="8"></rect>
        <rect id="pin-left-2" fill="#777777" x="10" y="46" width="10" height="8"></rect>
        <rect id="pin-left-3" fill="#777777" x="10" y="64" width="10" height="8"></rect>

        <rect id="pin-right-1" fill="#777777" x="80" y="28" width="10" height="8"></rect>
        <rect id="pin-right-2" fill="#777777" x="80" y="46" width="10" height="8"></rect>
        <rect id="pin-right-3" fill="#777777" x="80" y="64" width="10" height="8"></rect>

        <rect id="pin-top-1" fill="#777777" x="28" y="10" width="8" height="10"></rect>
        <rect id="pin-top-2" fill="#777777" x="46" y="10" width="8" height="10"></rect>
        <rect id="pin-top-3" fill="#777777" x="64" y="10" width="8" height="10"></rect>

        <rect id="pin-bottom-1" fill="#777777" x="28" y="80" width="8" height="10"></rect>
        <rect id="pin-bottom-2" fill="#777777" x="46" y="80" width="8" height="10"></rect>
        <rect id="pin-bottom-3" fill="#777777" x="64" y="80" width="8" height="10"></rect>
    </g>
</svg>
